<?xml version="1.0" encoding="utf-8"?>
<!-- Generator: Adobe Illustrator 24.0.0, SVG Export Plug-In . SVG Version: 6.00 Build 0)  -->
<svg version="1.1" id="图层_1" xmlns="http://www.w3.org/2000/svg" xmlns:xlink="http://www.w3.org/1999/xlink" x="0px" y="0px"
	 viewBox="0 0 16 16" enable-background="new 0 0 16 16" xml:space="preserve">
<title>common_icon_success</title>
<desc>Created with Sketch.</desc>
<path fill-rule="evenodd" clip-rule="evenodd" fill="#30C28B" d="M8,0C3.6,0,0,3.6,0,8s3.6,8,8,8s8-3.6,8-8S12.4,0,8,0z M12.6,5.8
	L12.6,5.8l-4.6,5c-0.3,0.3-0.7,0.3-1,0.1l-0.1-0.1L3.9,8c-0.3-0.3-0.3-0.8,0-1.1c0.3-0.3,0.7-0.3,1-0.1l0.1,0.1l2.5,2.3l4.1-4.3
	c0.3-0.3,0.7-0.3,1-0.1l0.1,0.1C12.8,5.1,12.8,5.5,12.6,5.8z"/>
</svg>
