<svg xmlns="http://www.w3.org/2000/svg" viewBox="0 0 1080 285.73"><defs><style>.cls-1{fill:#000434;}.cls-2{fill:#7b67ee;}</style></defs><title>资源 31</title><g id="图层_2" data-name="图层 2"><g id="图层_1-2" data-name="图层 1"><polygon class="cls-1" points="651.51 271.97 704.99 271.97 707.58 253.59 654.1 253.59 651.51 271.97"/><path class="cls-1" d="M776.82,89.25h-20l-31.7,71.46H739l-13,92.88L723.36,272H836.65l2.59-18.38H798.61l4-28.17h37.77l2.58-18.37H805.15l3.94-28h37.76l2.58-18.37H811.67L815,136.82h38.79l2.58-18.37H763.72Zm3.42,164.34H744.32l4-28.17H784.2Zm6.54-46.54H750.86l3.93-28h35.92Zm9.87-70.23-3.35,23.89H757.37l3.36-23.89Z"/><polygon class="cls-1" points="822.7 89.25 821.71 89.25 803.34 89.25 802.35 89.25 799.49 109.61 819.84 109.61 822.7 89.25"/><polygon class="cls-1" points="728.59 136 709.2 136 697.89 156.65 690.02 156.65 718.42 89.25 699.03 89.25 662.89 175.03 687.82 175.03 660.22 225.42 711.53 225.42 714.12 207.05 689.67 207.05 728.59 136"/><polygon class="cls-1" points="898.5 146.62 881.57 267.07 897.7 267.07 914.62 146.62 898.5 146.62"/><polygon class="cls-1" points="949.12 146.62 932.19 267.07 948.32 267.07 965.25 146.62 949.12 146.62"/><polygon class="cls-1" points="970.09 136.82 972.67 118.45 945.12 118.45 949.22 89.25 930.85 89.25 926.75 118.45 897.56 118.45 894.98 136.82 924.16 136.82 905.17 271.97 923.54 271.97 942.54 136.82 970.09 136.82"/><polygon class="cls-1" points="1080 99.87 1002.84 99.87 1004.33 89.25 985.63 89.25 981.55 118.24 981.68 118.24 981.66 118.45 1058.81 118.45 1056.43 135.42 1024.98 150.76 997.85 135.42 998.85 128.26 980.28 128.26 977.88 145.29 1004.89 160.56 966.58 179.24 963.83 198.84 1022.23 170.35 1072.63 198.84 1075.38 179.24 1042.32 160.56 1073.62 145.29 1080 99.87"/><path class="cls-1" d="M960.08,272h95.74l10.58-75.33H970.67Zm26.48-57h58.79l-5.43,38.58H981.14Z"/><polygon class="cls-2" points="122.48 109.61 64.42 204.53 35.21 109.61 0 109.61 54.2 285.73 161.93 109.61 122.48 109.61"/><circle class="cls-2" cx="223.09" cy="40.07" r="19.15"/><path class="cls-2" d="M508.48,272c17.6,0,34.69-5.65,49.35-15.21L555.69,272h34l22.82-162.36h-34l-2.13,15.2c-12-9.55-27.47-15.2-45.07-15.2-44.76,0-86.3,36.41-92.59,81.18S463.72,272,508.48,272ZM473,190.79c3.63-25.84,27.61-46.86,53.44-46.86s43.9,21,40.27,46.86-27.6,46.85-53.44,46.85S469.4,216.62,473,190.79Z"/><polygon class="cls-2" points="195.44 109.61 172.62 271.97 206.6 271.97 229.42 109.61 195.44 109.61"/><polygon class="cls-2" points="374.97 109.61 312.76 169.37 336.56 0 302.58 0 264.36 271.97 298.34 271.97 310.11 188.25 370.58 271.97 412.1 271.97 347.55 182.61 423.54 109.61 374.97 109.61"/></g></g></svg>