<?xml version="1.0" encoding="utf-8"?>
<!-- Generator: Adobe Illustrator 24.0.0, SVG Export Plug-In . SVG Version: 6.00 Build 0)  -->
<svg version="1.1" id="图层_1" xmlns="http://www.w3.org/2000/svg" xmlns:xlink="http://www.w3.org/1999/xlink" x="0px" y="0px"
	 viewBox="0 0 525 140" style="enable-background:new 0 0 525 140;" xml:space="preserve">
<style type="text/css">
	.st0{fill:#FFFFFF;}
</style>
<g>
	<path class="st0" d="M105,0H35C15.7,0,0,15.7,0,35v70c0,19.3,15.7,35,35,35h70c19.3,0,35-15.7,35-35V35C140,15.7,124.3,0,105,0z
		 M93.3,104.9c-6.4,0-11.7-5.2-11.7-11.7c0-6.4,5.2-11.7,11.7-11.7c6.4,0,11.7,5.2,11.7,11.7C104.9,99.7,99.7,104.9,93.3,104.9z
		 M81.6,58.4L58.4,81.6l-23.3,23.3V81.6V58.4V35.1h23.3v23.3l23.3-23.3h23.3L81.6,58.4z"/>
	<polygon class="st0" points="172,118.1 200.2,118.1 201.6,108.5 173.4,108.5 	"/>
	<path class="st0" d="M238,21.9h-10.5l-16.7,37.6h7.3l-6.9,48.9l-1.4,9.7h25.6h34.1l1.4-9.7h-21.4l2.1-14.8h19.9l1.4-9.7h-19.9
		l2.1-14.7h19.9l1.4-9.7h-19.9l1.8-12.6h20.4l1.4-9.7h-48.8L238,21.9z M239.8,108.5h-18.9l2.1-14.8h18.9L239.8,108.5z M243.3,84
		h-18.9l2.1-14.7h18.9L243.3,84z M248.5,47l-1.8,12.6h-18.9l1.8-12.6H248.5z"/>
	<polygon class="st0" points="262.2,21.9 261.6,21.9 252,21.9 251.4,21.9 249.9,32.6 260.7,32.6 	"/>
	<polygon class="st0" points="212.6,46.5 202.4,46.5 196.5,57.4 192.3,57.4 207.2,21.9 197,21.9 178,67.1 191.2,67.1 176.6,93.6 
		203.6,93.6 205,84 192.1,84 	"/>
	<polygon class="st0" points="302.1,52.1 293.2,115.5 301.6,115.5 310.6,52.1 	"/>
	<polygon class="st0" points="328.7,52.1 319.8,115.5 328.3,115.5 337.2,52.1 	"/>
	<polygon class="st0" points="339.8,47 341.2,37.3 326.6,37.3 328.8,21.9 319.1,21.9 317,37.3 301.6,37.3 300.2,47 315.6,47 
		305.6,118.1 315.3,118.1 325.3,47 	"/>
	<polygon class="st0" points="397.7,27.5 357,27.5 357.8,21.9 348,21.9 345.8,37.1 345.9,37.1 345.9,37.3 386.5,37.3 385.3,46.2 
		368.7,54.3 354.4,46.2 354.9,42.4 345.2,42.4 343.9,51.4 358.1,59.5 338,69.3 336.5,79.6 367.2,64.6 393.8,79.6 395.2,69.3 
		377.8,59.5 394.3,51.4 	"/>
	<path class="st0" d="M334.5,118.1h50.4l5.6-39.7h-50.4L334.5,118.1z M348.5,88.1h31l-2.9,20.3h-31L348.5,88.1z"/>
	<polygon class="st0" points="515.5,38.8 516.8,29.4 475,29.4 476,21.9 466,21.9 465,29.4 423.2,29.4 421.9,38.8 463.7,38.8 
		462.6,46.1 422.6,46.1 421.3,55.6 461.3,55.6 459.9,65.7 416.7,65.7 415.4,75.2 438.7,75.2 409.1,118 419.5,118 449.1,75.2 
		443.1,118 472.9,118 474.2,108.5 453.9,108.5 458.6,75.2 511.8,75.2 513.2,65.7 469.9,65.7 471.3,55.6 511.3,55.6 512.7,46.1 
		472.6,46.1 473.6,38.8 	"/>
	<polygon class="st0" points="482.4,79.2 470.9,79.2 492.7,118 504.3,118 492.7,97.6 508.8,90.5 510.3,80 488.4,89.7 	"/>
</g>
</svg>
